<svg width="97" height="62" viewBox="0 0 97 62" fill="none" xmlns="http://www.w3.org/2000/svg">
<g clip-path="url(#clip0_120_153)">
<g clip-path="url(#clip1_120_153)">
<path d="M73.5608 8.74767L71.2483 8.15417L70.346 11.8086L72.6585 12.4021L73.5608 8.74767Z" fill="#3085FE"/>
<path d="M84.5994 36.1997L88.1837 37.12L88.7661 34.7623L85.1817 33.842L84.5994 36.1997Z" fill="#3085FE"/>
<path d="M60.3609 51.9749L62.6733 52.5686L63.576 48.9142L61.2635 48.3204L60.3609 51.9749Z" fill="#3085FE"/>
<path d="M49.4151 24.5778L45.8304 23.6578L45.2483 26.0158L48.833 26.9357L49.4151 24.5778Z" fill="#3085FE"/>
<path d="M54.6245 16.4067L51.9724 13.7815L50.3112 15.526L52.9633 18.1512L54.6245 16.4067Z" fill="#3085FE"/>
<path d="M83.2885 15.0392L81.5768 13.3462L79.003 16.0513L80.7148 17.7443L83.2885 15.0392Z" fill="#3085FE"/>
<path d="M79.2941 44.3335L81.9462 46.9587L83.6074 45.2142L80.9552 42.589L79.2941 44.3335Z" fill="#3085FE"/>
<path d="M50.6399 45.7221L52.3514 47.415L54.9252 44.7103L53.2137 43.0173L50.6399 45.7221Z" fill="#3085FE"/>
<path d="M45.3968 35.4884L46.0631 37.823L49.6123 36.77L48.946 34.4354L45.3968 35.4884Z" fill="#3085FE"/>
<path d="M62.9092 11.9836L61.8772 8.36499L59.5874 9.04383L60.6194 12.6625L62.9092 11.9836Z" fill="#3085FE"/>
<path d="M65.8613 30.2705C65.9806 30.7568 66.4575 31.1215 67.0537 31.1215C67.1729 31.1215 67.2922 31.1215 67.4114 31.1215L88.5162 25.2862C89.1124 25.1647 89.4701 24.4352 89.3509 23.8274C89.2316 23.2196 88.5162 22.8548 87.92 22.9764L66.8152 28.8117C66.0998 28.9333 65.7421 29.5411 65.8613 30.2705Z" fill="#3085FE"/>
<path d="M70.9533 48.7811L71.9846 52.4001L74.2747 51.7218L73.2434 48.1028L70.9533 48.7811Z" fill="#3085FE"/>
<path d="M74.5656 0.850981C73.1348 0.486275 71.8232 0.243138 70.3923 0.121569C69.3192 4.61936e-07 68.3653 0 67.2922 0C60.7342 0 54.5339 2.18824 49.526 5.95686V5.71373C49.2875 4.2549 47.8567 3.16078 46.4259 3.40392L43.3257 4.01176L42.8488 1.33726C42.7295 0.729412 42.1334 0.243136 41.4179 0.364705C40.8218 0.486274 40.3448 1.09412 40.4641 1.82353L40.941 4.49804L31.4021 6.2L30.8059 2.67451C30.6867 2.06667 30.0905 1.58039 29.3751 1.70196C28.7789 1.82353 28.302 2.43137 28.4212 3.16078L29.0174 6.68627L19.0016 8.38824L18.4054 5.10588C18.2861 4.49804 17.69 4.01176 16.9745 4.13333C16.3784 4.2549 15.9014 4.86274 16.0206 5.59216L16.6168 8.87451L7.79335 10.4549L7.31641 7.78039C7.19717 7.17255 6.60099 6.68627 5.88558 6.80784C5.2894 6.92941 4.81245 7.53725 4.93169 8.26667L5.40863 10.9412L2.30849 11.549C1.59308 11.6706 0.996896 12.0353 0.519951 12.6431C0.0430066 13.251 -0.0762302 13.9804 0.043006 14.7098L7.55488 59.6902C7.79335 61.0275 8.86648 62 10.2973 62C10.4166 62 10.655 62 10.7743 62L48.4529 55.4353L48.9298 55.1922L46.9028 53.2471L10.2973 59.5686H10.1781C10.0588 59.5686 9.82037 59.4471 9.82037 59.3255L4.09704 25.2863L39.2717 19.2078C39.7486 18.2353 40.1063 17.3843 40.7025 16.5333L3.73933 22.9765L2.30849 14.3451C2.30849 14.2235 2.30849 14.102 2.42773 14.102C2.42773 14.102 2.54697 13.9804 2.6662 13.9804L5.76634 13.3725L6.24329 16.0471C6.36252 16.6549 6.83947 17.0196 7.43565 17.0196C7.55488 17.0196 7.55488 17.0196 7.67412 17.0196C8.2703 16.898 8.74724 16.2902 8.62801 15.5608L8.15106 12.8863L16.9745 11.3059L17.3322 13.4941C17.4515 14.102 17.9284 14.4667 18.5246 14.4667C18.6438 14.4667 18.6438 14.4667 18.7631 14.4667C19.3593 14.3451 19.8362 13.7373 19.717 13.0078L19.24 10.4549L29.2559 8.75294L29.6136 10.698C29.7328 11.3059 30.2097 11.6706 30.8059 11.6706C30.9252 11.6706 30.9252 11.6706 31.0444 11.6706C31.6406 11.549 32.1175 10.9412 31.9983 10.2118L31.6406 8.26667L41.1795 6.56471L41.6564 9.23921C41.7757 9.84706 42.2526 10.2118 42.8488 10.2118C42.968 10.2118 42.968 10.2118 43.0872 10.2118C43.6834 10.0902 44.1604 9.48235 44.0411 8.75294L43.5642 6.07843L46.7836 5.47059C46.9028 5.47059 47.1413 5.59216 47.1413 5.71373L47.3797 7.41568C45.5912 9.11765 43.9219 10.9412 42.6103 13.0078C40.7025 15.9255 39.2717 19.0863 38.3178 22.6118C34.2638 38.902 44.0411 55.4353 59.8995 59.4471C62.2843 60.0549 64.7882 60.4196 67.1729 60.4196C80.8851 60.4196 92.6895 50.9373 96.0281 37.4431C100.201 21.3961 90.5432 4.86275 74.5656 0.850981ZM93.8818 37.0784C90.7817 49.6 79.812 58.2314 67.2922 58.2314C65.0267 58.2314 62.7612 57.9882 60.615 57.3804C45.9489 53.6118 37.0062 38.4157 40.7025 23.4627C43.8027 11.0627 54.6532 2.3098 67.2922 2.3098C69.5577 2.3098 71.8232 2.55294 73.9694 3.16078C88.6355 6.92941 97.5782 22.1255 93.8818 37.0784Z" fill="#3085FE"/>
<path d="M20.3131 28.0823C18.0476 28.4471 16.3783 29.6627 15.5437 31.7294C14.709 33.6745 14.5898 36.5922 15.186 40.2392C15.7821 43.7647 16.8553 46.4392 18.2861 48.1412C19.7169 49.8431 21.6247 50.451 23.8902 50.0863C26.2749 49.7216 27.825 48.5059 28.6597 46.4392C29.4943 44.3725 29.6135 41.5765 29.0174 37.9294C28.4212 34.4039 27.3481 31.7294 25.9172 30.149C24.4864 28.3255 22.5786 27.7176 20.3131 28.0823ZM26.7519 45.102C26.2749 46.6823 25.2018 47.5333 23.6517 47.898C22.1017 48.1412 20.7901 47.6549 19.8362 46.3176C18.8823 44.9804 18.1669 42.7922 17.6899 39.7529C17.213 36.7137 17.213 34.4039 17.6899 32.8235C18.1669 31.2431 19.24 30.3922 20.7901 30.149C22.3401 29.9059 23.6517 30.3922 24.6056 31.7294C25.5595 33.0667 26.2749 35.2549 26.7519 38.2941C27.2288 41.3333 27.2288 43.6431 26.7519 45.102Z" fill="#3085FE"/>
<path d="M36.6484 27.4745C36.7677 26.7451 36.8869 26.0157 37.0062 25.2863C36.8869 25.2863 36.8869 25.2863 36.7677 25.2863C34.7407 25.651 33.3098 26.5019 32.3559 28.0823C31.4021 29.5412 31.0443 31.3647 31.4021 33.6745C31.7598 35.7412 32.5944 37.2 33.7868 38.051C34.8599 38.7804 36.1715 39.1451 37.6023 39.0235C37.3639 38.2941 37.1254 37.6863 37.0062 36.9568C36.41 36.8353 35.8138 36.5921 35.3368 36.2274C34.5022 35.498 34.0253 34.5255 33.7868 33.0666C33.5483 31.4863 33.6675 30.149 34.2637 29.1765C34.7407 28.3255 35.5753 27.7176 36.6484 27.4745Z" fill="#3085FE"/>
<path d="M38.0793 47.5334C39.1524 47.2903 40.1063 47.0471 41.0602 46.6824C40.8217 46.1961 40.464 45.5883 40.1063 44.8589C39.3909 45.2236 38.6755 45.4667 37.7216 45.5883C36.7677 45.7099 35.8138 45.8314 35.0984 45.7099L35.4561 47.7765C36.0523 47.7765 37.0062 47.7765 38.0793 47.5334Z" fill="#3085FE"/>
</g>
</g>
<defs>
<clipPath id="clip0_120_153">
<rect width="97" height="62" fill="white"/>
</clipPath>
<clipPath id="clip1_120_153">
<rect width="97" height="62" fill="white"/>
</clipPath>
</defs>
</svg>
